<svg id="svg" version="1.1" xmlns="http://www.w3.org/2000/svg" xmlns:xlink="http://www.w3.org/1999/xlink" width="400" height="257.17852684144816" viewBox="0, 0, 400,257.17852684144816"><g id="svgg"><path id="path0" d="M0.000 128.617 L 0.000 257.235 200.000 257.235 L 400.000 257.235 400.000 128.617 L 400.000 0.000 200.000 0.000 L 0.000 0.000 0.000 128.617 M123.678 89.312 C 124.683 90.317,123.252 91.996,122.058 91.213 C 120.919 90.467,121.345 89.003,122.701 89.003 C 123.069 89.003,123.509 89.142,123.678 89.312 M108.573 90.326 C 112.619 91.538,113.777 97.137,110.565 99.957 C 107.047 103.046,101.338 100.416,101.356 95.715 C 101.371 91.804,104.846 89.209,108.573 90.326 M129.968 90.735 C 130.642 91.343,130.570 92.983,129.846 93.490 C 127.772 94.943,125.540 92.262,127.453 90.616 C 128.242 89.937,129.129 89.980,129.968 90.735 M95.949 94.548 C 100.648 96.931,98.354 103.783,93.093 103.077 C 88.532 102.466,88.095 95.235,92.560 94.254 C 92.938 94.171,93.363 94.069,93.505 94.027 C 93.913 93.908,95.246 94.191,95.949 94.548 M122.470 94.676 C 125.589 96.267,125.404 101.101,122.161 102.778 C 121.023 103.367,118.823 103.260,117.793 102.566 C 112.758 99.173,117.060 91.916,122.470 94.676 M137.868 94.529 C 140.973 96.134,139.941 100.579,136.463 100.579 C 134.480 100.579,133.248 99.324,133.248 97.305 C 133.248 95.017,135.822 93.470,137.868 94.529 M145.620 102.778 C 147.225 103.608,148.383 105.937,148.023 107.610 C 146.969 112.509,139.990 112.727,138.960 107.893 C 138.131 104.004,142.098 100.957,145.620 102.778 M86.731 103.333 C 88.866 105.467,87.143 109.029,84.125 108.721 C 83.215 108.628,82.800 108.412,82.131 107.682 C 79.360 104.658,83.830 100.432,86.731 103.333 M131.644 103.260 C 133.661 105.109,132.626 108.375,129.907 108.740 C 127.918 109.006,126.302 107.602,126.302 105.607 C 126.302 102.690,129.492 101.289,131.644 103.260 M107.473 104.232 C 108.242 105.001,107.639 106.238,106.495 106.238 C 105.686 106.238,105.209 105.808,105.209 105.080 C 105.209 104.352,105.686 103.923,106.495 103.923 C 106.863 103.923,107.303 104.062,107.473 104.232 M101.929 105.763 C 103.463 107.576,100.835 109.862,99.152 108.179 C 98.314 107.340,98.356 106.621,99.299 105.677 C 100.185 104.791,101.133 104.822,101.929 105.763 M94.625 109.462 C 96.154 110.748,96.278 112.814,94.910 114.182 C 92.589 116.504,88.669 114.188,89.546 111.013 C 90.126 108.912,92.948 108.050,94.625 109.462 M80.398 112.014 C 81.973 113.590,80.140 116.022,78.170 114.968 C 76.975 114.329,77.045 112.286,78.282 111.688 C 79.178 111.255,79.722 111.339,80.398 112.014 M135.657 111.916 C 136.514 112.590,136.567 113.803,135.775 114.646 C 134.299 116.217,131.839 114.388,132.836 112.461 C 133.461 111.252,134.546 111.042,135.657 111.916 M148.859 114.864 C 153.557 117.205,152.675 123.873,147.486 125.253 C 144.234 126.117,140.729 123.295,140.713 119.799 C 140.694 115.552,145.002 112.942,148.859 114.864 M87.717 117.183 C 92.020 119.355,90.490 125.659,85.659 125.659 C 80.478 125.659,79.302 117.999,84.313 116.894 C 84.700 116.809,85.132 116.706,85.273 116.664 C 85.681 116.545,87.014 116.828,87.717 117.183 M225.542 118.165 C 226.104 118.726,226.060 121.016,225.475 121.662 C 224.840 122.364,223.027 122.387,222.406 121.701 C 220.548 119.648,223.592 116.215,225.542 118.165 M78.190 118.568 C 78.608 119.349,78.508 119.826,77.831 120.270 C 77.092 120.754,76.279 120.454,76.007 119.596 C 75.635 118.423,77.614 117.491,78.190 118.568 M137.312 118.379 C 137.980 119.047,137.322 120.643,136.379 120.643 C 135.871 120.643,135.048 119.893,135.048 119.429 C 135.048 118.267,136.518 117.586,137.312 118.379 M178.232 118.553 C 178.813 119.134,183.666 133.550,183.666 134.695 C 183.666 136.613,180.250 136.850,179.558 134.980 C 179.389 134.522,179.086 133.768,178.885 133.303 L 178.520 132.457 176.022 132.531 C 173.243 132.613,173.555 132.406,172.424 134.920 C 171.644 136.654,168.232 136.506,168.232 134.738 C 168.232 133.825,173.222 119.087,173.707 118.565 C 174.367 117.857,177.527 117.849,178.232 118.553 M196.123 118.475 C 196.651 119.003,196.741 135.246,196.219 135.768 C 195.827 136.160,194.687 136.165,193.841 135.780 C 193.312 135.539,192.998 135.568,192.183 135.936 C 190.742 136.586,187.094 136.429,186.064 135.673 C 184.667 134.648,184.438 133.778,184.438 129.491 C 184.437 123.825,185.090 122.995,189.754 122.730 L 192.540 122.572 192.669 120.746 C 192.847 118.213,194.666 117.017,196.123 118.475 M245.962 118.788 C 247.506 119.747,247.975 121.059,247.969 124.390 C 247.958 129.592,246.957 130.607,241.543 130.900 L 238.585 131.061 238.457 133.300 C 238.305 135.939,238.113 136.206,236.365 136.206 C 234.290 136.206,234.341 136.433,234.341 127.211 C 234.341 116.981,233.692 118.007,240.092 118.116 C 244.697 118.194,245.077 118.237,245.962 118.788 M238.907 121.935 C 238.447 122.218,238.232 125.675,238.613 126.667 C 238.824 127.217,242.490 127.250,243.231 126.709 C 243.926 126.200,243.961 122.951,243.279 122.268 C 242.744 121.734,239.622 121.496,238.907 121.935 M220.173 122.769 C 222.092 123.748,221.296 125.837,218.904 126.100 C 216.404 126.374,216.334 126.515,216.334 131.298 C 216.334 135.938,216.229 136.206,214.403 136.206 C 212.305 136.206,212.218 135.947,212.222 129.682 C 212.227 122.663,212.421 122.169,214.798 123.120 C 215.712 123.485,215.887 123.488,216.411 123.145 C 217.511 122.424,219.171 122.258,220.173 122.769 M257.692 122.844 C 258.986 123.750,258.231 126.044,256.638 126.046 C 253.671 126.052,253.376 126.564,253.376 131.715 C 253.376 136.108,253.149 136.574,251.162 136.251 C 249.465 135.976,249.501 136.131,249.577 129.428 L 249.646 123.363 250.336 122.976 C 250.957 122.628,251.117 122.633,251.935 123.022 C 252.799 123.434,252.897 123.431,253.946 122.955 C 255.281 122.349,256.916 122.301,257.692 122.844 M294.207 122.949 C 295.950 123.740,296.332 124.630,296.333 127.901 C 296.335 131.281,296.448 131.188,292.300 131.194 C 289.173 131.198,288.434 131.370,288.690 132.036 C 288.806 132.340,289.481 132.440,291.903 132.513 C 295.491 132.620,295.820 132.781,295.820 134.431 C 295.820 136.218,295.333 136.402,290.876 136.294 C 284.889 136.150,284.373 135.592,284.373 129.260 C 284.373 124.544,284.620 123.862,286.663 122.934 C 288.183 122.243,292.672 122.252,294.207 122.949 M307.812 123.103 C 309.330 124.238,309.575 124.844,309.669 127.694 C 309.785 131.238,309.840 131.189,305.769 131.194 C 302.520 131.198,301.809 131.365,302.077 132.064 C 302.208 132.406,302.705 132.477,305.008 132.480 C 308.548 132.485,309.040 132.705,309.145 134.332 C 309.267 136.217,308.801 136.404,304.252 136.294 C 298.331 136.152,297.790 135.623,297.666 129.851 C 297.558 124.835,297.925 123.750,300.052 122.795 C 301.366 122.204,306.904 122.424,307.812 123.103 M321.540 123.029 C 323.444 124.036,323.601 124.602,323.601 130.464 C 323.601 136.199,323.552 136.334,321.486 136.334 C 319.641 136.334,319.486 135.926,319.486 131.079 C 319.486 126.280,319.400 126.045,317.655 126.045 C 315.618 126.045,315.370 126.630,315.370 131.421 C 315.370 136.079,315.260 136.334,313.255 136.334 C 311.292 136.334,311.235 136.130,311.314 129.330 L 311.383 123.363 312.063 122.982 C 312.643 122.656,312.894 122.650,313.780 122.943 C 314.675 123.238,314.953 123.229,315.801 122.878 C 317.341 122.240,320.189 122.315,321.540 123.029 M208.351 123.353 C 210.060 124.357,210.278 125.095,210.378 130.196 C 210.491 135.957,210.100 136.809,207.768 135.884 C 206.879 135.531,206.701 135.537,205.799 135.944 C 203.303 137.069,199.511 136.096,198.685 134.118 C 197.154 130.453,199.085 127.819,203.473 127.588 C 205.702 127.471,205.916 127.415,205.916 126.945 C 205.916 126.470,205.692 126.419,202.958 126.272 C 199.486 126.085,199.919 126.203,199.597 125.357 C 199.242 124.423,199.520 123.343,200.206 122.996 C 201.244 122.471,207.301 122.737,208.351 123.353 M225.458 123.207 C 225.872 123.663,225.912 124.279,225.873 129.573 C 225.824 136.217,225.827 136.206,223.923 136.206 C 222.046 136.206,222.046 136.204,221.950 129.609 C 221.871 124.175,221.898 123.748,222.355 123.243 C 223.016 122.512,224.811 122.491,225.458 123.207 M268.192 123.191 C 270.202 124.103,270.375 124.713,270.295 130.576 L 270.225 135.672 269.569 136.040 C 268.989 136.365,268.804 136.355,267.962 135.956 C 267.049 135.523,266.970 135.524,266.045 135.979 C 262.487 137.731,258.716 135.856,258.573 132.263 C 258.439 128.898,259.742 127.591,263.232 127.589 C 265.497 127.588,266.459 127.265,265.966 126.670 C 265.739 126.397,265.009 126.302,263.120 126.302 C 260.249 126.302,259.550 125.950,259.550 124.502 C 259.550 122.963,260.181 122.700,263.859 122.707 C 266.498 122.711,267.344 122.806,268.192 123.191 M274.714 123.154 C 275.094 123.461,275.579 124.627,276.222 126.776 C 277.483 130.989,277.558 130.958,279.104 125.579 C 279.761 123.296,280.288 122.701,281.651 122.701 C 284.360 122.701,284.384 123.125,282.040 129.718 C 279.738 136.195,279.554 136.448,277.245 136.281 C 276.382 136.218,275.576 136.007,275.354 135.786 C 274.873 135.305,271.125 124.967,271.125 124.121 C 271.125 122.841,273.528 122.193,274.714 123.154 M175.715 124.457 C 175.209 125.403,174.373 128.358,174.537 128.623 C 174.788 129.028,177.228 128.935,177.389 128.514 C 177.525 128.161,176.694 125.126,176.240 124.314 C 176.040 123.958,175.972 123.976,175.715 124.457 M288.877 126.428 C 288.240 127.196,288.761 127.588,290.418 127.588 C 291.628 127.588,292.014 127.494,292.140 127.165 C 292.510 126.201,289.610 125.545,288.877 126.428 M302.290 126.273 C 302.099 126.394,301.984 126.710,302.035 126.976 C 302.156 127.613,304.818 127.829,305.305 127.241 C 306.018 126.383,303.428 125.551,302.290 126.273 M188.810 126.548 C 188.122 126.993,188.103 131.768,188.787 132.453 C 189.508 133.174,191.081 133.173,191.999 132.451 C 192.676 131.919,192.685 131.871,192.613 129.171 L 192.540 126.431 190.868 126.365 C 189.949 126.328,189.023 126.410,188.810 126.548 M145.157 128.708 C 146.288 129.180,147.571 130.702,147.915 131.980 C 149.068 136.263,143.604 139.449,140.363 136.382 C 136.693 132.910,140.526 126.773,145.157 128.708 M84.502 129.159 C 86.024 129.575,87.818 131.526,88.220 133.200 C 89.578 138.862,82.212 142.481,78.498 137.975 C 75.011 133.745,79.134 127.691,84.502 129.159 M202.615 131.361 C 202.260 131.717,202.464 132.469,202.993 132.752 C 204.089 133.338,206.045 132.646,206.045 131.673 C 206.045 131.182,203.065 130.912,202.615 131.361 M262.958 131.360 C 262.378 131.594,262.603 132.476,263.311 132.745 C 264.643 133.251,266.495 132.489,266.146 131.579 C 265.999 131.196,263.748 131.041,262.958 131.360 M93.710 134.301 C 94.064 134.867,93.738 135.990,93.176 136.137 C 91.897 136.471,90.976 134.979,91.895 134.060 C 92.315 133.640,93.385 133.782,93.710 134.301 M152.883 134.293 C 153.637 135.370,152.470 136.728,151.319 136.112 C 150.205 135.516,150.637 133.762,151.897 133.762 C 152.235 133.762,152.678 134.001,152.883 134.293 M151.318 139.620 C 151.936 140.162,151.901 141.604,151.254 142.251 C 149.689 143.816,147.062 141.776,148.323 139.974 C 149.084 138.888,150.318 138.742,151.318 139.620 M95.949 139.678 C 97.060 140.790,96.151 142.765,94.529 142.765 C 93.519 142.765,92.776 142.002,92.776 140.965 C 92.776 139.341,94.793 138.523,95.949 139.678 M138.143 139.554 C 140.186 140.611,140.194 143.636,138.158 145.008 C 135.395 146.870,132.080 143.711,133.637 140.701 C 134.374 139.276,136.539 138.725,138.143 139.554 M88.256 143.651 C 90.876 145.385,90.848 149.424,88.205 151.173 C 84.364 153.715,79.541 149.603,81.534 145.486 C 82.783 142.906,85.860 142.066,88.256 143.651 M129.740 145.871 C 131.099 146.940,130.337 149.196,128.617 149.196 C 126.838 149.196,126.128 147.137,127.487 145.916 C 128.288 145.197,128.869 145.185,129.740 145.871 M146.000 145.825 C 149.310 147.328,147.725 152.579,144.163 151.911 C 140.781 151.276,140.433 146.581,143.696 145.604 C 144.750 145.288,144.836 145.296,146.000 145.825 M101.804 146.475 C 104.221 148.690,101.778 152.801,98.658 151.771 C 95.210 150.633,95.944 145.595,99.558 145.595 C 100.663 145.595,100.978 145.718,101.804 146.475 M123.583 148.314 C 124.730 149.461,123.088 151.145,121.885 150.057 C 121.301 149.528,121.287 148.992,121.841 148.380 C 122.363 147.803,123.046 147.777,123.583 148.314 M110.551 151.395 C 112.493 152.206,113.441 153.594,113.441 155.627 C 113.441 159.357,109.533 161.476,106.466 159.409 C 101.985 156.389,105.588 149.321,110.551 151.395 M136.988 151.480 C 137.560 151.740,138.338 152.322,138.718 152.773 C 142.308 157.040,136.181 162.851,132.131 159.019 C 128.382 155.472,132.320 149.360,136.988 151.480 M123.660 153.096 C 125.285 153.506,127.171 155.335,127.591 156.911 C 129.114 162.625,121.988 166.576,118.108 162.168 C 114.404 157.960,118.219 151.726,123.660 153.096 M93.975 153.920 C 96.268 154.878,96.494 158.176,94.356 159.479 C 92.116 160.845,89.518 159.391,89.518 156.773 C 89.518 154.405,91.737 152.985,93.975 153.920 M101.929 161.068 C 102.559 161.813,102.490 162.743,101.748 163.484 C 100.744 164.488,99.532 164.296,98.877 163.029 C 97.860 161.063,100.493 159.371,101.929 161.068 M107.362 163.374 C 108.201 164.573,106.639 166.024,105.613 164.998 C 105.133 164.518,105.085 163.571,105.518 163.138 C 106.001 162.655,106.943 162.775,107.362 163.374 " stroke="none" fill="#5a328a" fill-rule="evenodd"></path><path id="path1" d="M121.723 89.312 C 120.719 90.317,122.150 91.996,123.344 91.213 C 124.483 90.467,124.057 89.003,122.701 89.003 C 122.333 89.003,121.893 89.142,121.723 89.312 M105.013 90.376 C 100.746 91.923,100.006 97.709,103.752 100.243 C 107.597 102.844,112.400 100.316,112.400 95.691 C 112.400 91.761,108.644 89.059,105.013 90.376 M127.453 90.616 C 125.540 92.262,127.772 94.943,129.846 93.490 C 130.570 92.983,130.642 91.343,129.968 90.735 C 129.129 89.980,128.242 89.937,127.453 90.616 M93.505 94.027 C 93.363 94.069,92.938 94.171,92.560 94.254 C 89.103 95.013,88.239 100.018,91.178 102.259 C 95.484 105.543,100.999 99.531,97.283 95.604 C 96.269 94.533,94.417 93.760,93.505 94.027 M118.714 94.269 C 115.809 95.320,114.666 98.629,116.347 101.123 C 119.104 105.213,125.465 102.716,124.676 97.853 C 124.234 95.128,121.268 93.345,118.714 94.269 M134.885 94.641 C 131.963 96.423,133.067 100.579,136.463 100.579 C 138.455 100.579,139.678 99.324,139.678 97.282 C 139.678 94.916,136.924 93.398,134.885 94.641 M142.379 102.353 C 139.135 103.169,137.771 107.064,139.798 109.722 C 141.665 112.169,146.113 111.820,147.493 109.119 C 149.322 105.540,146.189 101.395,142.379 102.353 M82.317 103.346 C 81.411 104.252,81.286 104.521,81.286 105.568 C 81.286 108.929,85.796 109.978,87.347 106.979 C 88.981 103.818,84.838 100.825,82.317 103.346 M127.785 102.782 C 125.726 103.899,125.846 107.296,127.984 108.448 C 131.227 110.194,134.362 105.751,131.644 103.260 C 130.558 102.265,129.076 102.081,127.785 102.782 M105.518 104.232 C 104.748 105.001,105.351 106.238,106.495 106.238 C 107.304 106.238,107.781 105.808,107.781 105.080 C 107.781 104.352,107.304 103.923,106.495 103.923 C 106.127 103.923,105.687 104.062,105.518 104.232 M99.299 105.677 C 98.356 106.621,98.314 107.340,99.152 108.179 C 100.835 109.862,103.463 107.576,101.929 105.763 C 101.133 104.822,100.185 104.791,99.299 105.677 M90.574 109.470 C 88.644 111.094,89.234 114.049,91.672 114.972 C 94.023 115.864,96.494 113.428,95.694 111.006 C 94.991 108.874,92.256 108.054,90.574 109.470 M78.282 111.688 C 77.045 112.286,76.975 114.329,78.170 114.968 C 80.140 116.022,81.973 113.590,80.398 112.014 C 79.722 111.339,79.178 111.255,78.282 111.688 M133.564 111.555 C 133.384 111.627,133.056 112.035,132.836 112.461 C 131.839 114.388,134.299 116.217,135.775 114.646 C 137.216 113.112,135.534 110.762,133.564 111.555 M143.923 114.700 C 140.193 116.427,139.582 121.331,142.759 124.051 C 146.063 126.879,151.258 124.864,151.913 120.500 C 152.538 116.329,147.813 112.899,143.923 114.700 M85.273 116.664 C 85.132 116.706,84.700 116.809,84.313 116.894 C 81.816 117.445,80.389 120.624,81.521 123.117 C 83.498 127.469,90.252 125.999,90.284 121.209 C 90.300 118.839,87.260 116.082,85.273 116.664 M222.765 117.875 C 221.924 118.316,221.681 120.900,222.406 121.701 C 223.732 123.166,225.963 121.986,225.930 119.836 C 225.902 117.935,224.412 117.013,222.765 117.875 M76.287 118.567 C 75.345 119.607,76.648 121.044,77.831 120.270 C 78.508 119.826,78.608 119.349,78.190 118.568 C 77.849 117.930,76.864 117.929,76.287 118.567 M135.315 118.568 C 134.553 119.991,136.137 121.342,137.195 120.173 C 137.695 119.620,137.748 118.815,137.312 118.379 C 136.823 117.890,135.616 118.004,135.315 118.568 M173.707 118.565 C 173.222 119.087,168.232 133.825,168.232 134.738 C 168.232 136.506,171.644 136.654,172.424 134.920 C 173.555 132.406,173.243 132.613,176.022 132.531 L 178.520 132.457 178.885 133.303 C 179.086 133.768,179.389 134.522,179.558 134.980 C 180.250 136.850,183.666 136.613,183.666 134.695 C 183.666 133.550,178.813 119.134,178.232 118.553 C 177.527 117.849,174.367 117.857,173.707 118.565 M193.150 118.495 C 192.956 118.728,192.740 119.741,192.669 120.746 L 192.540 122.572 189.754 122.730 C 185.090 122.995,184.437 123.825,184.438 129.491 C 184.438 133.778,184.667 134.648,186.064 135.673 C 187.094 136.429,190.742 136.586,192.183 135.936 C 192.998 135.568,193.312 135.539,193.841 135.780 C 194.687 136.165,195.827 136.160,196.219 135.768 C 196.741 135.246,196.651 119.003,196.123 118.475 C 195.572 117.924,193.615 117.937,193.150 118.495 M234.755 118.623 C 234.396 119.136,234.341 120.278,234.341 127.211 C 234.341 136.433,234.290 136.206,236.365 136.206 C 238.113 136.206,238.305 135.939,238.457 133.300 L 238.585 131.061 241.543 130.900 C 246.957 130.607,247.958 129.592,247.969 124.390 C 247.975 121.059,247.506 119.747,245.962 118.788 C 244.468 117.858,235.384 117.725,234.755 118.623 M243.279 122.268 C 243.961 122.951,243.926 126.200,243.231 126.709 C 242.490 127.250,238.824 127.217,238.613 126.667 C 238.232 125.675,238.447 122.218,238.907 121.935 C 239.622 121.496,242.744 121.734,243.279 122.268 M217.503 122.631 C 217.226 122.702,216.734 122.933,216.411 123.145 C 215.887 123.488,215.712 123.485,214.798 123.120 C 212.421 122.169,212.227 122.663,212.222 129.682 C 212.218 135.947,212.305 136.206,214.403 136.206 C 216.229 136.206,216.334 135.938,216.334 131.298 C 216.334 126.515,216.404 126.374,218.904 126.100 C 220.393 125.936,220.609 125.839,220.915 125.200 C 221.789 123.376,219.968 122.005,217.503 122.631 M253.946 122.955 C 252.897 123.431,252.799 123.434,251.935 123.022 C 251.117 122.633,250.957 122.628,250.336 122.976 L 249.646 123.363 249.577 129.428 C 249.501 136.131,249.465 135.976,251.162 136.251 C 253.149 136.574,253.376 136.108,253.376 131.715 C 253.376 126.564,253.671 126.052,256.638 126.046 C 257.732 126.045,258.264 125.454,258.264 124.241 C 258.264 122.478,256.292 121.891,253.946 122.955 M286.663 122.934 C 284.620 123.862,284.373 124.544,284.373 129.260 C 284.373 135.592,284.889 136.150,290.876 136.294 C 295.333 136.402,295.820 136.218,295.820 134.431 C 295.820 132.781,295.491 132.620,291.903 132.513 C 289.481 132.440,288.806 132.340,288.690 132.036 C 288.434 131.370,289.173 131.198,292.300 131.194 C 296.448 131.188,296.335 131.281,296.333 127.901 C 296.332 124.630,295.950 123.740,294.207 122.949 C 292.672 122.252,288.183 122.243,286.663 122.934 M300.052 122.795 C 297.925 123.750,297.558 124.835,297.666 129.851 C 297.790 135.623,298.331 136.152,304.252 136.294 C 308.801 136.404,309.267 136.217,309.145 134.332 C 309.040 132.705,308.548 132.485,305.008 132.480 C 302.705 132.477,302.208 132.406,302.077 132.064 C 301.809 131.365,302.520 131.198,305.769 131.194 C 309.840 131.189,309.785 131.238,309.669 127.694 C 309.575 124.844,309.330 124.238,307.812 123.103 C 306.904 122.424,301.366 122.204,300.052 122.795 M315.801 122.878 C 314.953 123.229,314.675 123.238,313.780 122.943 C 312.894 122.650,312.643 122.656,312.063 122.982 L 311.383 123.363 311.314 129.330 C 311.235 136.130,311.292 136.334,313.255 136.334 C 315.260 136.334,315.370 136.079,315.370 131.421 C 315.370 126.630,315.618 126.045,317.655 126.045 C 319.400 126.045,319.486 126.280,319.486 131.079 C 319.486 135.926,319.641 136.334,321.486 136.334 C 323.552 136.334,323.601 136.199,323.601 130.464 C 323.601 124.602,323.444 124.036,321.540 123.029 C 320.189 122.315,317.341 122.240,315.801 122.878 M200.206 122.996 C 199.520 123.343,199.242 124.423,199.597 125.357 C 199.919 126.203,199.486 126.085,202.958 126.272 C 205.692 126.419,205.916 126.470,205.916 126.945 C 205.916 127.415,205.702 127.471,203.473 127.588 C 199.085 127.819,197.154 130.453,198.685 134.118 C 199.511 136.096,203.303 137.069,205.799 135.944 C 206.701 135.537,206.879 135.531,207.768 135.884 C 210.100 136.809,210.491 135.957,210.378 130.196 C 210.278 125.095,210.060 124.357,208.351 123.353 C 207.301 122.737,201.244 122.471,200.206 122.996 M222.355 123.243 C 221.898 123.748,221.871 124.175,221.950 129.609 C 222.046 136.204,222.046 136.206,223.923 136.206 C 225.827 136.206,225.824 136.217,225.873 129.573 C 225.912 124.279,225.872 123.663,225.458 123.207 C 224.811 122.491,223.016 122.512,222.355 123.243 M260.064 123.215 C 258.384 124.896,259.775 126.302,263.120 126.302 C 265.009 126.302,265.739 126.397,265.966 126.670 C 266.459 127.265,265.497 127.588,263.232 127.589 C 259.742 127.591,258.439 128.898,258.573 132.263 C 258.716 135.856,262.487 137.731,266.045 135.979 C 266.970 135.524,267.049 135.523,267.962 135.956 C 268.804 136.355,268.989 136.365,269.569 136.040 L 270.225 135.672 270.295 130.576 C 270.375 124.713,270.202 124.103,268.192 123.191 C 266.582 122.460,260.802 122.477,260.064 123.215 M271.697 123.101 C 270.843 123.699,270.952 124.259,273.047 130.071 C 275.245 136.168,275.223 136.134,277.245 136.281 C 279.554 136.448,279.738 136.195,282.040 129.718 C 284.384 123.125,284.360 122.701,281.651 122.701 C 280.288 122.701,279.761 123.296,279.104 125.579 C 277.558 130.958,277.483 130.989,276.222 126.776 C 275.029 122.788,273.693 121.703,271.697 123.101 M176.998 126.438 C 177.678 128.639,177.579 128.875,175.972 128.875 C 174.345 128.875,174.272 128.725,174.900 126.690 C 175.919 123.392,176.053 123.376,176.998 126.438 M291.825 126.394 C 292.750 127.069,292.138 127.588,290.418 127.588 C 288.761 127.588,288.240 127.196,288.877 126.428 C 289.279 125.944,291.180 125.922,291.825 126.394 M305.200 126.458 C 305.916 127.175,305.234 127.624,303.563 127.536 C 302.087 127.458,301.437 126.813,302.290 126.273 C 302.886 125.895,304.755 126.014,305.200 126.458 M192.613 129.171 C 192.697 132.346,192.310 132.990,190.319 132.990 C 188.565 132.990,188.233 132.381,188.337 129.356 C 188.440 126.336,188.495 126.270,190.868 126.365 L 192.540 126.431 192.613 129.171 M141.738 128.770 C 138.550 130.153,137.853 134.008,140.363 136.382 C 143.604 139.449,149.068 136.263,147.915 131.980 C 147.162 129.183,144.261 127.676,141.738 128.770 M81.009 129.226 C 75.167 131.315,76.527 139.936,82.699 139.936 C 84.281 139.936,85.716 139.440,86.645 138.573 C 90.937 134.570,86.525 127.254,81.009 129.226 M206.045 131.673 C 206.045 132.646,204.089 133.338,202.993 132.752 C 202.464 132.469,202.260 131.717,202.615 131.361 C 203.065 130.912,206.045 131.182,206.045 131.673 M266.146 131.579 C 266.495 132.489,264.643 133.251,263.311 132.745 C 262.603 132.476,262.378 131.594,262.958 131.360 C 263.748 131.041,265.999 131.196,266.146 131.579 M91.895 134.060 C 90.976 134.979,91.897 136.471,93.176 136.137 C 93.738 135.990,94.064 134.867,93.710 134.301 C 93.385 133.782,92.315 133.640,91.895 134.060 M150.911 134.293 C 150.162 135.363,151.226 136.664,152.408 136.125 C 153.592 135.586,153.197 133.762,151.897 133.762 C 151.559 133.762,151.116 134.001,150.911 134.293 M149.288 139.164 C 148.639 139.423,147.910 140.388,147.910 140.987 C 147.910 142.484,150.168 143.337,151.254 142.251 C 152.644 140.861,151.102 138.440,149.288 139.164 M93.245 139.682 C 92.189 140.848,92.987 142.765,94.529 142.765 C 96.151 142.765,97.060 140.790,95.949 139.678 C 95.267 138.997,93.863 138.999,93.245 139.682 M134.730 139.567 C 133.268 140.360,132.756 142.842,133.785 144.151 C 136.320 147.374,141.168 144.333,139.288 140.699 C 138.555 139.281,136.292 138.719,134.730 139.567 M84.319 143.006 C 80.346 144.279,79.971 149.692,83.731 151.512 C 86.659 152.929,90.289 150.651,90.289 147.395 C 90.289 144.520,87.044 142.134,84.319 143.006 M127.487 145.916 C 126.128 147.137,126.838 149.196,128.617 149.196 C 130.337 149.196,131.099 146.940,129.740 145.871 C 128.869 145.185,128.288 145.197,127.487 145.916 M143.696 145.604 C 140.433 146.581,140.781 151.276,144.163 151.911 C 147.725 152.579,149.310 147.328,146.000 145.825 C 144.836 145.296,144.750 145.288,143.696 145.604 M97.456 146.323 C 95.023 148.498,97.345 152.793,100.408 151.782 C 104.035 150.585,103.350 145.595,99.558 145.595 C 98.509 145.595,98.121 145.729,97.456 146.323 M121.841 148.380 C 121.287 148.992,121.301 149.528,121.885 150.057 C 123.088 151.145,124.730 149.461,123.583 148.314 C 123.046 147.777,122.363 147.803,121.841 148.380 M107.269 151.407 C 103.794 152.913,103.353 157.311,106.466 159.409 C 109.533 161.476,113.441 159.357,113.441 155.627 C 113.441 152.347,110.204 150.134,107.269 151.407 M133.507 151.407 C 130.318 152.789,129.622 156.645,132.131 159.019 C 136.181 162.851,142.308 157.040,138.718 152.773 C 137.391 151.196,135.273 150.641,133.507 151.407 M120.581 153.163 C 116.550 154.602,115.337 159.019,118.108 162.168 C 121.246 165.733,127.096 163.924,127.745 159.188 C 128.285 155.248,124.250 151.854,120.581 153.163 M91.177 153.968 C 89.037 155.024,88.960 158.527,91.053 159.610 C 92.743 160.484,94.884 159.735,95.601 158.019 C 96.746 155.279,93.865 152.642,91.177 153.968 M99.632 160.557 C 97.884 161.420,98.626 164.116,100.612 164.116 C 101.316 164.116,102.379 162.979,102.379 162.227 C 102.379 160.916,100.822 159.970,99.632 160.557 M105.518 163.138 C 104.856 163.800,105.435 165.402,106.336 165.402 C 106.768 165.402,107.420 164.852,107.597 164.338 C 107.952 163.311,106.299 162.357,105.518 163.138 " stroke="none" fill="#92d7fa" fill-rule="evenodd"></path><path id="path2" d="" stroke="none" fill="#441b7b" fill-rule="evenodd"></path></g></svg>