<?xml version="1.0" encoding="UTF-8"?>
<!DOCTYPE svg PUBLIC "-//W3C//DTD SVG 1.1//EN" "http://www.w3.org/Graphics/SVG/1.1/DTD/svg11.dtd">
<svg xmlns="http://www.w3.org/2000/svg" version="1.1" width="176px" height="168px" style="shape-rendering:geometricPrecision; text-rendering:geometricPrecision; image-rendering:optimizeQuality; fill-rule:evenodd; clip-rule:evenodd" xmlns:xlink="http://www.w3.org/1999/xlink">
<g><path style="opacity:1" fill="#39a8df" d="M 101.5,5.5 C 105.161,5.35012 106.161,6.85012 104.5,10C 103.207,10.49 101.873,10.6567 100.5,10.5C 100.366,8.70848 100.699,7.04181 101.5,5.5 Z"/></g>
<g><path style="opacity:0.655" fill="#44639c" d="M 101.5,5.5 C 100.699,7.04181 100.366,8.70848 100.5,10.5C 97.6947,8.24389 98.028,6.57722 101.5,5.5 Z"/></g>
<g><path style="opacity:1" fill="#33b6eb" d="M 81.5,16.5 C 81.1667,19.1667 80.8333,21.8333 80.5,24.5C 79.7457,27.091 78.079,28.9243 75.5,30C 70.6529,31.1562 66.3196,30.3229 62.5,27.5C 62.573,25.9731 61.9063,24.9731 60.5,24.5C 56.864,17.2253 58.864,11.7253 66.5,8C 74.2549,6.20584 79.2549,9.03918 81.5,16.5 Z"/></g>
<g><path style="opacity:0.999" fill="#3ba4db" d="M 111.5,14.5 C 110.699,12.9582 110.366,11.2915 110.5,9.5C 111.659,7.62313 113.326,7.12313 115.5,8C 119.614,11.2028 119.281,14.0362 114.5,16.5C 113.261,16.0576 112.261,15.3909 111.5,14.5 Z"/></g>
<g><path style="opacity:0.029" fill="#453a76" d="M 110.5,9.5 C 110.366,11.2915 110.699,12.9582 111.5,14.5C 110.351,14.2089 109.684,13.3756 109.5,12C 109.528,10.9302 109.861,10.0968 110.5,9.5 Z"/></g>
<g><path style="opacity:0.498" fill="#3f5993" d="M 47.5,16.5 C 45.1667,16.5 42.8333,16.5 40.5,16.5C 42.9024,14.1093 45.2358,14.1093 47.5,16.5 Z"/></g>
<g><path style="opacity:0.506" fill="#405f99" d="M 100.5,16.5 C 98.1667,16.5 95.8333,16.5 93.5,16.5C 94.531,15.7515 95.6976,15.0848 97,14.5C 98.3024,15.0848 99.469,15.7515 100.5,16.5 Z"/></g>
<g><path style="opacity:1" fill="#34b4ea" d="M 40.5,16.5 C 42.8333,16.5 45.1667,16.5 47.5,16.5C 48.609,16.5569 49.609,16.8902 50.5,17.5C 50.427,19.0269 51.0937,20.0269 52.5,20.5C 55.1009,24.1101 54.9343,27.7767 52,31.5C 47,35.5 42,35.5 37,31.5C 34.6241,28.2662 34.1241,24.9329 35.5,21.5C 37.5,20.1667 39.1667,18.5 40.5,16.5 Z"/></g>
<g><path style="opacity:1" fill="#30b9ef" d="M 93.5,16.5 C 95.8333,16.5 98.1667,16.5 100.5,16.5C 103.167,17.1667 104.833,18.8333 105.5,21.5C 105.5,23.8333 105.5,26.1667 105.5,28.5C 102.457,34.5023 97.7899,36.0023 91.5,33C 89.8588,31.871 88.8588,30.371 88.5,28.5C 88.5,26.1667 88.5,23.8333 88.5,21.5C 89.1667,18.8333 90.8333,17.1667 93.5,16.5 Z"/></g>
<g><path style="opacity:1" fill="#32b8ed" d="M 131.5,16.5 C 133.404,16.7376 134.738,17.7376 135.5,19.5C 135.5,21.5 135.5,23.5 135.5,25.5C 134.758,28.1381 132.925,29.4714 130,29.5C 126.545,29.3702 124.378,27.7036 123.5,24.5C 123.517,22.4352 123.85,20.4352 124.5,18.5C 126.558,17.0669 128.892,16.4003 131.5,16.5 Z"/></g>
<g><path style="opacity:0.667" fill="#415d97" d="M 40.5,16.5 C 39.1667,18.5 37.5,20.1667 35.5,21.5C 36.1667,18.8333 37.8333,17.1667 40.5,16.5 Z"/></g>
<g><path style="opacity:0.988" fill="#456fa8" d="M 131.5,16.5 C 128.892,16.4003 126.558,17.0669 124.5,18.5C 126.265,15.5512 128.598,14.8846 131.5,16.5 Z"/></g>
<g><path style="opacity:0.788" fill="#436aa3" d="M 50.5,17.5 C 51.9063,17.9731 52.573,18.9731 52.5,20.5C 51.0937,20.0269 50.427,19.0269 50.5,17.5 Z"/></g>
<g><path style="opacity:0.048" fill="#473a75" d="M 124.5,18.5 C 123.85,20.4352 123.517,22.4352 123.5,24.5C 122.861,23.9032 122.528,23.0698 122.5,22C 122.387,20.3009 123.053,19.1342 124.5,18.5 Z"/></g>
<g><path style="opacity:0.604" fill="#455790" d="M 81.5,16.5 C 82.746,19.2933 82.4127,21.96 80.5,24.5C 80.8333,21.8333 81.1667,19.1667 81.5,16.5 Z"/></g>
<g><path style="opacity:0.549" fill="#435992" d="M 135.5,19.5 C 138.167,21.5 138.167,23.5 135.5,25.5C 135.5,23.5 135.5,21.5 135.5,19.5 Z"/></g>
<g><path style="opacity:0.574" fill="#425993" d="M 105.5,21.5 C 108.167,23.8333 108.167,26.1667 105.5,28.5C 105.5,26.1667 105.5,23.8333 105.5,21.5 Z"/></g>
<g><path style="opacity:0.569" fill="#43508a" d="M 88.5,21.5 C 88.5,23.8333 88.5,26.1667 88.5,28.5C 85.8333,26.1667 85.8333,23.8333 88.5,21.5 Z"/></g>
<g><path style="opacity:0.024" fill="#433f7b" d="M 60.5,24.5 C 61.9063,24.9731 62.573,25.9731 62.5,27.5C 61.0937,27.0269 60.427,26.0269 60.5,24.5 Z"/></g>
<g><path style="opacity:1" fill="#31b4ea" d="M 113.5,32.5 C 122.244,32.4126 124.577,36.246 120.5,44C 115.934,46.5777 112.267,45.7444 109.5,41.5C 109.448,39.0971 109.781,36.7638 110.5,34.5C 112.027,34.573 113.027,33.9063 113.5,32.5 Z"/></g>
<g><path style="opacity:1" fill="#33b8ed" d="M 151.5,36.5 C 152.265,39.0961 152.599,41.7628 152.5,44.5C 147.691,52.7883 142.024,53.455 135.5,46.5C 135.081,42.2273 135.748,38.2273 137.5,34.5C 139.027,34.573 140.027,33.9063 140.5,32.5C 145.169,30.6537 148.836,31.987 151.5,36.5 Z"/></g>
<g><path style="opacity:1" fill="#37abe1" d="M 21.5,32.5 C 31.2985,31.4397 34.2985,35.273 30.5,44C 22.9005,47.0504 19.0672,44.5504 19,36.5C 19.6622,35.0161 20.4955,33.6828 21.5,32.5 Z"/></g>
<g><path style="opacity:0.725" fill="#43669f" d="M 113.5,32.5 C 113.027,33.9063 112.027,34.573 110.5,34.5C 110.973,33.0937 111.973,32.427 113.5,32.5 Z"/></g>
<g><path style="opacity:0.796" fill="#456ba3" d="M 140.5,32.5 C 140.027,33.9063 139.027,34.573 137.5,34.5C 137.973,33.0937 138.973,32.427 140.5,32.5 Z"/></g>
<g><path style="opacity:1" fill="#37a0d7" d="M 69.5,34.5 C 73.457,36.63 73.457,38.63 69.5,40.5C 65.5265,38.4603 65.5265,36.4603 69.5,34.5 Z"/></g>
<g><path style="opacity:0.024" fill="#463470" d="M 110.5,34.5 C 109.781,36.7638 109.448,39.0971 109.5,41.5C 108.853,40.7261 108.52,39.7261 108.5,38.5C 108.34,36.6455 109.007,35.3121 110.5,34.5 Z"/></g>
<g><path style="opacity:0.531" fill="#3e5d97" d="M 59.5,38.5 C 58.1667,38.5 56.8333,38.5 55.5,38.5C 56.6344,36.2187 57.9678,36.2187 59.5,38.5 Z"/></g>
<g><path style="opacity:0.016" fill="#47417c" d="M 151.5,36.5 C 153.026,37.4919 153.693,38.9919 153.5,41C 153.486,42.3847 153.152,43.5514 152.5,44.5C 152.599,41.7628 152.265,39.0961 151.5,36.5 Z"/></g>
<g><path style="opacity:1" fill="#2eb8ee" d="M 55.5,38.5 C 56.8333,38.5 58.1667,38.5 59.5,38.5C 59.8333,38.5 60.1667,38.5 60.5,38.5C 60.5,40.5 60.5,42.5 60.5,44.5C 59.9032,45.1386 59.0698,45.472 58,45.5C 56.3009,45.6134 55.1342,44.9468 54.5,43.5C 54.5,42.1667 54.5,40.8333 54.5,39.5C 54.5,38.8333 54.8333,38.5 55.5,38.5 Z"/></g>
<g><path style="opacity:0.801" fill="#456ba4" d="M 137.5,34.5 C 135.748,38.2273 135.081,42.2273 135.5,46.5C 132.63,41.9655 133.297,37.9655 137.5,34.5 Z"/></g>
<g><path style="opacity:0.435" fill="#40518c" d="M 54.5,39.5 C 54.5,40.8333 54.5,42.1667 54.5,43.5C 51.8333,42.1667 51.8333,40.8333 54.5,39.5 Z"/></g>
<g><path style="opacity:1" fill="#4472ab" d="M 60.5,38.5 C 63.1667,40.5 63.1667,42.5 60.5,44.5C 60.5,42.5 60.5,40.5 60.5,38.5 Z"/></g>
<g><path style="opacity:1" fill="#37ace2" d="M 36.5,55.5 C 36.7373,54.209 36.404,53.209 35.5,52.5C 35.5,51.8333 35.5,51.1667 35.5,50.5C 36.6737,49.4863 37.3404,48.153 37.5,46.5C 43.1294,43.6351 47.1294,45.3018 49.5,51.5C 48.2891,56.9385 44.9557,59.1052 39.5,58C 38.0577,57.6232 37.0577,56.7899 36.5,55.5 Z"/></g>
<g><path style="opacity:0.239" fill="#415a94" d="M 37.5,46.5 C 37.3404,48.153 36.6737,49.4863 35.5,50.5C 35.0618,50.5654 34.7284,50.3988 34.5,50C 35.1634,48.4815 36.1634,47.3149 37.5,46.5 Z"/></g>
<g><path style="opacity:1" fill="#39a1d8" d="M 12.5,50.5 C 19.004,50.1377 20.6707,52.6377 17.5,58C 11.2058,58.5776 9.5391,56.0776 12.5,50.5 Z"/></g>
<g><path style="opacity:0.998" fill="#34ade3" d="M 122.5,56.5 C 122.5,55.1667 122.5,53.8333 122.5,52.5C 124.011,50.5589 126.011,50.0589 128.5,51C 130.059,53.6417 129.725,55.975 127.5,58C 125.326,58.8769 123.659,58.3769 122.5,56.5 Z"/></g>
<g><path style="opacity:0.745" fill="#435f99" d="M 35.5,52.5 C 36.404,53.209 36.7373,54.209 36.5,55.5C 35.7326,54.828 35.0659,53.9947 34.5,53C 34.7284,52.6012 35.0618,52.4346 35.5,52.5 Z"/></g>
<g><path style="opacity:0.014" fill="#453c77" d="M 122.5,52.5 C 122.5,53.8333 122.5,55.1667 122.5,56.5C 119.978,55.3351 119.978,54.0018 122.5,52.5 Z"/></g>
<g><path style="opacity:1" fill="#31b9ee" d="M 144.5,77.5 C 144.027,76.0937 143.027,75.427 141.5,75.5C 140.094,75.0269 139.427,74.0269 139.5,72.5C 138.841,69.5448 138.508,66.5448 138.5,63.5C 138.427,61.9731 139.094,60.9731 140.5,60.5C 141.833,59.8333 142.833,58.8333 143.5,57.5C 152.753,53.9628 158.753,57.1294 161.5,67C 159.403,76.6368 153.736,80.1368 144.5,77.5 Z"/></g>
<g><path style="opacity:0.31" fill="#424d87" d="M 143.5,57.5 C 142.833,58.8333 141.833,59.8333 140.5,60.5C 140.5,58.5 141.5,57.5 143.5,57.5 Z"/></g>
<g><path style="opacity:0.248" fill="#3f4b86" d="M 31.5,61.5 C 28.7628,61.4013 26.0961,61.7347 23.5,62.5C 24.4919,60.9735 25.9919,60.3068 28,60.5C 29.3847,60.5143 30.5514,60.8476 31.5,61.5 Z"/></g>
<g><path style="opacity:1" fill="#2dbef3" d="M 31.5,61.5 C 34.1667,62.1667 35.8333,63.8333 36.5,66.5C 36.5,69.1667 36.5,71.8333 36.5,74.5C 35.4154,76.5869 33.7488,77.9202 31.5,78.5C 29.1667,78.5 26.8333,78.5 24.5,78.5C 21.8333,77.8333 20.1667,76.1667 19.5,73.5C 19.5,71.1667 19.5,68.8333 19.5,66.5C 20.9063,66.0269 21.573,65.0269 21.5,63.5C 21.8417,62.6618 22.5084,62.3284 23.5,62.5C 26.0961,61.7347 28.7628,61.4013 31.5,61.5 Z"/></g>
<g><path style="opacity:0.041" fill="#473c76" d="M 138.5,63.5 C 138.508,66.5448 138.841,69.5448 139.5,72.5C 138.06,71.0539 137.393,69.2206 137.5,67C 137.514,65.6153 137.848,64.4486 138.5,63.5 Z"/></g>
<g><path style="opacity:1" fill="#3b9ad2" d="M 9.5,63.5 C 14.1584,63.653 15.1584,65.4863 12.5,69C 8.53694,69.1177 7.53694,67.2843 9.5,63.5 Z"/></g>
<g><path style="opacity:1" fill="#38a1d8" d="M 127.5,67.5 C 127.5,66.5 127.5,65.5 127.5,64.5C 128.601,63.4017 129.934,63.235 131.5,64C 132.98,66.5497 132.313,68.3831 129.5,69.5C 128.478,69.1445 127.811,68.4778 127.5,67.5 Z"/></g>
<g><path style="opacity:0.412" fill="#40639d" d="M 21.5,63.5 C 21.573,65.0269 20.9063,66.0269 19.5,66.5C 19.427,64.9731 20.0937,63.9731 21.5,63.5 Z"/></g>
<g><path style="opacity:0.51" fill="#42568f" d="M 127.5,64.5 C 127.5,65.5 127.5,66.5 127.5,67.5C 125.015,66.7399 125.015,65.7399 127.5,64.5 Z"/></g>
<g><path style="opacity:0.54" fill="#3f518c" d="M 19.5,66.5 C 19.5,68.8333 19.5,71.1667 19.5,73.5C 17.1093,71.2358 17.1093,68.9024 19.5,66.5 Z"/></g>
<g><path style="opacity:0.548" fill="#40508b" d="M 36.5,66.5 C 39.1667,69.1667 39.1667,71.8333 36.5,74.5C 36.5,71.8333 36.5,69.1667 36.5,66.5 Z"/></g>
<g><path style="opacity:0.255" fill="#445791" d="M 141.5,75.5 C 143.027,75.427 144.027,76.0937 144.5,77.5C 142.973,77.573 141.973,76.9063 141.5,75.5 Z"/></g>
<g><path style="opacity:0.769" fill="#3f6aa4" d="M 24.5,78.5 C 26.8333,78.5 29.1667,78.5 31.5,78.5C 29.1667,81.1667 26.8333,81.1667 24.5,78.5 Z"/></g>
<g><path style="opacity:0.794" fill="#416fa8" d="M 147.5,85.5 C 144.833,85.5 142.167,85.5 139.5,85.5C 142.289,83.2856 144.956,83.2856 147.5,85.5 Z"/></g>
<g><path style="opacity:0.788" fill="#4067a0" d="M 27.5,86.5 C 24.5,86.5 21.5,86.5 18.5,86.5C 21.4213,84.2309 24.4213,84.2309 27.5,86.5 Z"/></g>
<g><path style="opacity:1" fill="#30bbf0" d="M 139.5,85.5 C 142.167,85.5 144.833,85.5 147.5,85.5C 149.027,85.427 150.027,86.0937 150.5,87.5C 150.427,89.0269 151.094,90.0269 152.5,90.5C 154.244,96.1887 152.244,100.355 146.5,103C 141.232,104.092 137.566,102.258 135.5,97.5C 135.5,94.8333 135.5,92.1667 135.5,89.5C 137.167,88.5 138.5,87.1667 139.5,85.5 Z"/></g>
<g><path style="opacity:1" fill="#32b6ec" d="M 18.5,86.5 C 21.5,86.5 24.5,86.5 27.5,86.5C 34.1386,90.7172 35.6386,96.3838 32,103.5C 25.0573,109.939 18.3907,109.606 12,102.5C 10.3159,99.1056 10.1492,95.7723 11.5,92.5C 13.2624,91.7377 14.2624,90.4044 14.5,88.5C 15.5137,87.3263 16.847,86.6596 18.5,86.5 Z"/></g>
<g><path style="opacity:0.682" fill="#4267a0" d="M 139.5,85.5 C 138.5,87.1667 137.167,88.5 135.5,89.5C 135.833,87.1667 137.167,85.8333 139.5,85.5 Z"/></g>
<g><path style="opacity:0.831" fill="#40649f" d="M 14.5,88.5 C 14.2624,90.4044 13.2624,91.7377 11.5,92.5C 11.7376,90.5956 12.7376,89.2623 14.5,88.5 Z"/></g>
<g><path style="opacity:0.29" fill="#445992" d="M 150.5,87.5 C 151.906,87.9731 152.573,88.9731 152.5,90.5C 151.094,90.0269 150.427,89.0269 150.5,87.5 Z"/></g>
<g><path style="opacity:0.788" fill="#446da5" d="M 135.5,89.5 C 135.5,92.1667 135.5,94.8333 135.5,97.5C 134.12,97.0377 133.453,96.0377 133.5,94.5C 133.801,92.5784 134.467,90.9117 135.5,89.5 Z"/></g>
<g><path style="opacity:1" fill="#399bd3" d="M 39.5,99.5 C 39.8333,98.1667 40.1667,96.8333 40.5,95.5C 42.7073,94.1301 44.374,94.7968 45.5,97.5C 44.2351,100.469 42.2351,101.135 39.5,99.5 Z"/></g>
<g><path style="opacity:1" fill="#3a9fd6" d="M 158.5,99.5 C 158.5,98.1667 158.5,96.8333 158.5,95.5C 160.753,94.1449 162.42,94.8116 163.5,97.5C 163.392,98.4419 163.059,99.2753 162.5,100C 160.934,100.765 159.601,100.598 158.5,99.5 Z"/></g>
<g><path style="opacity:0.733" fill="#435f99" d="M 40.5,95.5 C 40.1667,96.8333 39.8333,98.1667 39.5,99.5C 38.1472,97.8716 38.4805,96.5383 40.5,95.5 Z"/></g>
<g><path style="opacity:0.361" fill="#444b85" d="M 158.5,95.5 C 158.5,96.8333 158.5,98.1667 158.5,99.5C 156.219,98.3656 156.219,97.0322 158.5,95.5 Z"/></g>
<g><path style="opacity:0.314" fill="#3f4b86" d="M 47.5,106.5 C 46.1667,106.5 44.8333,106.5 43.5,106.5C 45.0018,103.978 46.3351,103.978 47.5,106.5 Z"/></g>
<g><path style="opacity:1" fill="#3aa3da" d="M 43.5,106.5 C 44.8333,106.5 46.1667,106.5 47.5,106.5C 50.874,108.138 51.2073,110.304 48.5,113C 43.5023,114.33 41.3357,112.496 42,107.5C 42.3826,106.944 42.8826,106.611 43.5,106.5 Z"/></g>
<g><path style="opacity:1" fill="#38ace3" d="M 123.5,109.5 C 124.833,108.833 125.833,107.833 126.5,106.5C 130.492,104.67 133.658,105.67 136,109.5C 136.854,117.66 133.354,120.493 125.5,118C 122.52,115.586 121.853,112.752 123.5,109.5 Z"/></g>
<g><path style="opacity:1" fill="#37a7dd" d="M 154.5,105.5 C 160.313,105.062 161.98,107.562 159.5,113C 152.745,113.756 151.078,111.256 154.5,105.5 Z"/></g>
<g><path style="opacity:0.129" fill="#423d79" d="M 126.5,106.5 C 125.833,107.833 124.833,108.833 123.5,109.5C 123.5,107.5 124.5,106.5 126.5,106.5 Z"/></g>
<g><path style="opacity:1" fill="#33b3e9" d="M 34.5,115.5 C 34.427,117.027 35.0937,118.027 36.5,118.5C 38.3263,129.004 33.9929,133.004 23.5,130.5C 23.0269,129.094 22.0269,128.427 20.5,128.5C 16.2596,120.194 18.7596,114.861 28,112.5C 30.5459,112.859 32.7126,113.859 34.5,115.5 Z"/></g>
<g><path style="opacity:0.29" fill="#3f4c88" d="M 34.5,115.5 C 35.9063,115.973 36.573,116.973 36.5,118.5C 35.0937,118.027 34.427,117.027 34.5,115.5 Z"/></g>
<g><path style="opacity:0.556" fill="#40528d" d="M 59.5,119.5 C 57.1667,119.5 54.8333,119.5 52.5,119.5C 54.8333,116.833 57.1667,116.833 59.5,119.5 Z"/></g>
<g><path style="opacity:0.537" fill="#425b95" d="M 149.5,119.5 C 147.167,119.5 144.833,119.5 142.5,119.5C 143.531,118.751 144.698,118.085 146,117.5C 147.302,118.085 148.469,118.751 149.5,119.5 Z"/></g>
<g><path style="opacity:1" fill="#32b4ea" d="M 52.5,119.5 C 54.8333,119.5 57.1667,119.5 59.5,119.5C 60.5,119.833 61.1667,120.5 61.5,121.5C 61.5,123.833 61.5,126.167 61.5,128.5C 61.0472,129.458 60.3805,130.292 59.5,131C 52.3246,132.48 48.8246,129.647 49,122.5C 50.0391,121.29 51.2058,120.29 52.5,119.5 Z"/></g>
<g><path style="opacity:1" fill="#3ba0d7" d="M 113.5,117.5 C 118.589,118.934 119.589,121.767 116.5,126C 112.872,127.316 110.539,126.149 109.5,122.5C 110.16,120.185 111.493,118.519 113.5,117.5 Z"/></g>
<g><path style="opacity:1" fill="#2bbef3" d="M 142.5,119.5 C 144.833,119.5 147.167,119.5 149.5,119.5C 150.5,119.833 151.167,120.5 151.5,121.5C 151.5,123.833 151.5,126.167 151.5,128.5C 150.488,130.876 148.655,131.876 146,131.5C 143.345,131.876 141.512,130.876 140.5,128.5C 140.5,126.167 140.5,123.833 140.5,121.5C 141.5,121.167 142.167,120.5 142.5,119.5 Z"/></g>
<g><path style="opacity:0.212" fill="#41417d" d="M 142.5,119.5 C 142.167,120.5 141.5,121.167 140.5,121.5C 140.5,120.167 141.167,119.5 142.5,119.5 Z"/></g>
<g><path style="opacity:0.827" fill="#4078b0" d="M 151.5,121.5 C 153.426,123.627 153.426,125.96 151.5,128.5C 151.5,126.167 151.5,123.833 151.5,121.5 Z"/></g>
<g><path style="opacity:0.843" fill="#42639c" d="M 61.5,121.5 C 64.1667,123.833 64.1667,126.167 61.5,128.5C 61.5,126.167 61.5,123.833 61.5,121.5 Z"/></g>
<g><path style="opacity:1" fill="#3d96ce" d="M 99.5,123.5 C 106.198,123.437 107.031,125.437 102,129.5C 98.6418,128.459 97.8085,126.459 99.5,123.5 Z"/></g>
<g><path style="opacity:0.863" fill="#44659e" d="M 140.5,121.5 C 140.5,123.833 140.5,126.167 140.5,128.5C 137.833,126.167 137.833,123.833 140.5,121.5 Z"/></g>
<g><path style="opacity:0.78" fill="#4169a3" d="M 20.5,128.5 C 22.0269,128.427 23.0269,129.094 23.5,130.5C 21.9731,130.573 20.9731,129.906 20.5,128.5 Z"/></g>
<g><path style="opacity:1" fill="#34b2e8" d="M 80.5,131.5 C 80.427,133.027 81.0937,134.027 82.5,134.5C 85.5801,140.541 83.9134,145.041 77.5,148C 74.9615,148.796 72.6282,148.629 70.5,147.5C 70.0269,146.094 69.0269,145.427 67.5,145.5C 63.9893,142.107 63.656,138.441 66.5,134.5C 67.8333,133.833 68.8333,132.833 69.5,131.5C 73.1244,128.844 76.7911,128.844 80.5,131.5 Z"/></g>
<g><path style="opacity:1" fill="#31b8ed" d="M 135.5,135.5 C 135.5,137.833 135.5,140.167 135.5,142.5C 134.833,145.167 133.167,146.833 130.5,147.5C 128.167,147.5 125.833,147.5 123.5,147.5C 118.204,145.234 116.37,141.234 118,135.5C 118.852,134.429 119.685,133.429 120.5,132.5C 122.027,132.573 123.027,131.906 123.5,130.5C 129.059,128.277 133.059,129.943 135.5,135.5 Z"/></g>
<g><path style="opacity:0.769" fill="#426da6" d="M 123.5,130.5 C 123.027,131.906 122.027,132.573 120.5,132.5C 120.973,131.094 121.973,130.427 123.5,130.5 Z"/></g>
<g><path style="opacity:0.69" fill="#43629b" d="M 80.5,131.5 C 81.9063,131.973 82.573,132.973 82.5,134.5C 81.0937,134.027 80.427,133.027 80.5,131.5 Z"/></g>
<g><path style="opacity:0.294" fill="#3f4d88" d="M 69.5,131.5 C 68.8333,132.833 67.8333,133.833 66.5,134.5C 66.5,132.5 67.5,131.5 69.5,131.5 Z"/></g>
<g><path style="opacity:1" fill="#30b9ee" d="M 111.5,140.5 C 111.5,143.5 111.5,146.5 111.5,149.5C 109.513,153.922 106.013,156.255 101,156.5C 90.932,154.321 87.5987,148.321 91,138.5C 94.7885,133.847 99.6218,132.347 105.5,134C 108.409,135.406 110.409,137.572 111.5,140.5 Z"/></g>
<g><path style="opacity:1" fill="#31b6ec" d="M 47.5,138.5 C 47.5,140.5 47.5,142.5 47.5,144.5C 47.6309,145.376 47.2975,146.043 46.5,146.5C 42.3449,149.403 39.0116,148.736 36.5,144.5C 36.4013,141.763 36.7347,139.096 37.5,136.5C 39.4551,134.674 41.7884,134.174 44.5,135C 46.4257,135.422 47.4257,136.589 47.5,138.5 Z"/></g>
<g><path style="opacity:0.835" fill="#406da6" d="M 135.5,135.5 C 137.891,137.764 137.891,140.098 135.5,142.5C 135.5,140.167 135.5,137.833 135.5,135.5 Z"/></g>
<g><path style="opacity:0.81" fill="#3f6fa9" d="M 37.5,136.5 C 36.7347,139.096 36.4013,141.763 36.5,144.5C 33.6502,141.503 33.9835,138.837 37.5,136.5 Z"/></g>
<g><path style="opacity:0.825" fill="#3e6ea8" d="M 47.5,138.5 C 50.1667,140.5 50.1667,142.5 47.5,144.5C 47.5,142.5 47.5,140.5 47.5,138.5 Z"/></g>
<g><path style="opacity:0.741" fill="#42619a" d="M 111.5,140.5 C 114.167,143.5 114.167,146.5 111.5,149.5C 111.5,146.5 111.5,143.5 111.5,140.5 Z"/></g>
<g><path style="opacity:0.267" fill="#404d89" d="M 67.5,145.5 C 69.0269,145.427 70.0269,146.094 70.5,147.5C 68.9731,147.573 67.9731,146.906 67.5,145.5 Z"/></g>
<g><path style="opacity:0.493" fill="#3f5d97" d="M 123.5,147.5 C 125.833,147.5 128.167,147.5 130.5,147.5C 129.469,148.249 128.302,148.915 127,149.5C 125.698,148.915 124.531,148.249 123.5,147.5 Z"/></g>
<g><path style="opacity:1" fill="#30b3e9" d="M 59.5,148.5 C 60.1495,150.435 60.4828,152.435 60.5,154.5C 58.5,157.167 56.5,157.167 54.5,154.5C 54.5,152.833 54.5,151.167 54.5,149.5C 56.0418,148.699 57.7085,148.366 59.5,148.5 Z"/></g>
<g><path style="opacity:0.992" fill="#407db6" d="M 59.5,148.5 C 62.4785,150.348 62.8118,152.348 60.5,154.5C 60.4828,152.435 60.1495,150.435 59.5,148.5 Z"/></g>
<g><path style="opacity:0.333" fill="#3f4a85" d="M 54.5,149.5 C 54.5,151.167 54.5,152.833 54.5,154.5C 52.0776,152.952 52.0776,151.286 54.5,149.5 Z"/></g>
<g><path style="opacity:1" fill="#32ace2" d="M 68.5,153.5 C 69.8333,153.5 71.1667,153.5 72.5,153.5C 72.9949,158.027 71.3282,159.361 67.5,157.5C 67.4326,156.041 67.7659,154.708 68.5,153.5 Z"/></g>
<g><path style="opacity:0.231" fill="#3b5792" d="M 68.5,153.5 C 67.7659,154.708 67.4326,156.041 67.5,157.5C 66.8761,157.083 66.5427,156.416 66.5,155.5C 66.7472,154.287 67.4138,153.62 68.5,153.5 Z"/></g>
</svg>
